<svg width="24" height="24" viewBox="0 0 24 24" fill="none" xmlns="http://www.w3.org/2000/svg">
<path d="M2.42578125 22.5234375Q1.96875 22.5234375 1.564453125 22.34765625Q1.16015625 22.171875 0.849609375 21.8671875Q0.5390625 21.5625 0.357421875 21.158203125Q0.17578125 20.75390625 0.17578125 20.296875Q0.17578125 19.7578125 0.41015625 19.265625L9.234375 1.6171875Q9.515625 1.0546875 10.06640625 0.71484375Q10.6171875 0.375 11.25 0.375Q11.8828125 0.375 12.43359375 0.71484375Q12.984375 1.0546875 13.265625 1.6171875L22.08984375 19.265625Q22.32421875 19.7578125 22.32421875 20.296875Q22.32421875 20.75390625 22.142578125 21.158203125Q21.9609375 21.5625 21.65625 21.8671875Q21.3515625 22.171875 20.94140625 22.34765625Q20.53125 22.5234375 20.07421875 22.5234375ZM20.07421875 21.0234375Q20.35546875 21.0234375 20.58984375 20.8125Q20.82421875 20.6015625 20.82421875 20.30859375Q20.82421875 20.09765625 20.7421875 19.93359375L11.91796875 2.28515625Q11.82421875 2.0859375 11.642578125 1.98046875Q11.4609375 1.875 11.25 1.875Q11.0390625 1.875 10.857421875 1.986328125Q10.67578125 2.09765625 10.58203125 2.28515625L1.7578125 19.93359375Q1.67578125 20.09765625 1.67578125 20.296875Q1.67578125 20.6015625 1.904296875 20.8125Q2.1328125 21.0234375 2.42578125 21.0234375ZM10.5 14.25V8.25Q10.5 7.9453125 10.72265625 7.72265625Q10.9453125 7.5 11.25 7.5Q11.5546875 7.5 11.77734375 7.72265625Q12.0 7.9453125 12.0 8.25V14.25Q12.0 14.5546875 11.77734375 14.77734375Q11.5546875 15.0 11.25 15.0Q10.9453125 15.0 10.72265625 14.77734375Q10.5 14.5546875 10.5 14.25ZM10.125 17.25Q10.125 16.78125 10.453125 16.453125Q10.78125 16.125 11.25 16.125Q11.71875 16.125 12.046875 16.453125Q12.375 16.78125 12.375 17.25Q12.375 17.71875 12.046875 18.046875Q11.71875 18.375 11.25 18.375Q10.78125 18.375 10.453125 18.046875Q10.125 17.71875 10.125 17.25Z" fill="currentColor"/>
</svg>
