<?xml version="1.0" encoding="iso-8859-1"?>
<!-- Generator: Adobe Illustrator 19.0.0, SVG Export Plug-In . SVG Version: 6.00 Build 0)  -->
<svg version="1.1" id="Layer_1" xmlns="http://www.w3.org/2000/svg" xmlns:xlink="http://www.w3.org/1999/xlink" x="0px" y="0px"
	 viewBox="0 0 512.016 512.016" style="enable-background:new 0 0 512.016 512.016;" xml:space="preserve">
<g>
	<g>
		<g>
			<path d="M488.008,48h-69.984c-8.832,0-16,7.152-16,16s7.168,16,16,16h62v352h-288.96l25.552-19.216
				c7.056-5.312,8.48-15.344,3.168-22.4c-5.312-7.024-15.328-8.464-22.4-3.152l-62.08,46.672c-0.528,0.288-0.96,0.736-1.456,1.104
				l-0.48,0.368c-0.112,0.08-0.16,0.224-0.272,0.304c-1.008,0.816-2.096,1.504-2.896,2.576c-0.352,0.464-0.432,1.008-0.72,1.504
				c-0.304,0.496-0.496,1.024-0.736,1.552c-0.592,1.28-1.12,2.528-1.344,3.888c-0.192,0.912-0.144,1.84-0.144,2.8
				c0.016,0.96-0.032,1.888,0.144,2.832c0.224,1.344,0.752,2.608,1.344,3.888c0.256,0.528,0.432,1.056,0.736,1.552
				c0.288,0.48,0.368,1.04,0.72,1.504c0.624,0.832,1.552,1.232,2.304,1.904c0.336,0.288,0.496,0.704,0.864,0.976l64,48.144
				c2.88,2.176,6.256,3.216,9.6,3.216c4.864,0,9.664-2.208,12.8-6.368c5.312-7.056,3.888-17.088-3.168-22.4L191.048,464h296.96
				c13.248,0,24-10.768,24-24V72C512.008,58.768,501.24,48,488.008,48z"/>
			<path d="M93.176,430.128H32.008V81.872h285.408L293.64,99.008c-7.168,5.168-8.8,15.168-3.632,22.336
				C293.128,125.68,298.024,128,303,128c3.232,0,6.512-0.992,9.328-3.008l64-46.128c4.592-3.312,6.624-8.608,6.336-13.872
				c0.272-5.136-1.648-10.304-6.064-13.632l-64-48.144c-7.072-5.328-17.088-3.872-22.4,3.152c-5.312,7.056-3.888,17.088,3.168,22.4
				l28.048,21.088H24.008c-13.232,0-24,10.768-24,24v364.256c0,13.248,10.768,24.016,24,24.016h69.168c8.832,0,16-7.152,16-16
				C109.176,437.28,102.008,430.128,93.176,430.128z"/>
		</g>
	</g>
</g>
<g>
</g>
<g>
</g>
<g>
</g>
<g>
</g>
<g>
</g>
<g>
</g>
<g>
</g>
<g>
</g>
<g>
</g>
<g>
</g>
<g>
</g>
<g>
</g>
<g>
</g>
<g>
</g>
<g>
</g>
</svg>
