<svg width="24" height="24" viewBox="0 0 24 24" fill="none" xmlns="http://www.w3.org/2000/svg">
<path d="M1.5 21.0V3.0Q1.5 2.6953125 1.6171875 2.42578125Q1.734375 2.15625 1.939453125 1.951171875Q2.14453125 1.74609375 2.4140625 1.623046875Q2.68359375 1.5 2.98828125 1.5Q3.41015625 1.5 3.78515625 1.728515625Q4.16015625 1.95703125 4.34765625 2.33203125L12.0 17.6484375L19.6640625 2.33203125Q19.86328125 1.9453125 20.220703125 1.72265625Q20.578125 1.5 21.01171875 1.5Q21.328125 1.5 21.59765625 1.6171875Q21.8671875 1.734375 22.06640625 1.939453125Q22.265625 2.14453125 22.3828125 2.4140625Q22.5 2.68359375 22.5 3.0V21.0Q22.5 21.31640625 22.3828125 21.5859375Q22.265625 21.85546875 22.060546875 22.060546875Q21.85546875 22.265625 21.5859375 22.3828125Q21.31640625 22.5 21.0 22.5Q20.68359375 22.5 20.408203125 22.3828125Q20.1328125 22.265625 19.93359375 22.06640625Q19.734375 21.8671875 19.6171875 21.591796875Q19.5 21.31640625 19.5 21.0V9.3515625L13.34765625 21.66796875Q13.16015625 22.04296875 12.78515625 22.236328125Q12.41015625 22.4296875 12.0 22.4296875Q11.58984375 22.4296875 11.220703125 22.236328125Q10.8515625 22.04296875 10.6640625 21.66796875L4.5 9.3515625V21.0Q4.5 21.31640625 4.3828125 21.5859375Q4.265625 21.85546875 4.060546875 22.060546875Q3.85546875 22.265625 3.5859375 22.3828125Q3.31640625 22.5 3.0 22.5Q2.68359375 22.5 2.408203125 22.3828125Q2.1328125 22.265625 1.93359375 22.06640625Q1.734375 21.8671875 1.6171875 21.591796875Q1.5 21.31640625 1.5 21.0Z" fill="currentColor"/>
</svg>
