<svg width="24" height="24" viewBox="0 0 24 24" fill="none" xmlns="http://www.w3.org/2000/svg">
<path d="M3.66796875 22.5Q2.9296875 22.5 2.26171875 22.201171875Q1.59375 21.90234375 1.095703125 21.404296875Q0.59765625 20.90625 0.298828125 20.23828125Q0.0 19.5703125 0.0 18.83203125V5.16796875Q0.0 4.4296875 0.298828125 3.76171875Q0.59765625 3.09375 1.095703125 2.595703125Q1.59375 2.09765625 2.26171875 1.798828125Q2.9296875 1.5 3.66796875 1.5H8.25Q9.05859375 1.5 9.638671875 1.751953125Q10.21875 2.00390625 10.681640625 2.419921875Q11.14453125 2.8359375 11.54296875 3.375Q11.94140625 3.9140625 12.375 4.5H20.33203125Q21.0703125 4.5 21.73828125 4.798828125Q22.40625 5.09765625 22.904296875 5.595703125Q23.40234375 6.09375 23.701171875 6.76171875Q24.0 7.4296875 24.0 8.16796875V11.8828125Q23.671875 11.47265625 23.296875 11.09765625Q22.921875 10.72265625 22.5 10.40625V8.25Q22.5 7.79296875 22.32421875 7.3828125Q22.1484375 6.97265625 21.837890625 6.662109375Q21.52734375 6.3515625 21.1171875 6.17578125Q20.70703125 6.0 20.25 6.0H12.22265625Q11.8125 6.28125 11.42578125 6.55078125Q11.0390625 6.8203125 10.640625 7.03125Q10.2421875 7.2421875 9.802734375 7.37109375Q9.36328125 7.5 8.8359375 7.5H1.5V18.75Q1.5 19.20703125 1.67578125 19.6171875Q1.8515625 20.02734375 2.162109375 20.337890625Q2.47265625 20.6484375 2.8828125 20.82421875Q3.29296875 21.0 3.75 21.0H9.48046875Q9.6796875 21.3984375 9.908203125 21.7734375Q10.13671875 22.1484375 10.40625 22.5ZM8.8359375 6.0Q9.15234375 6.0 9.427734375 5.91796875Q9.703125 5.8359375 9.94921875 5.701171875Q10.1953125 5.56640625 10.435546875 5.40234375Q10.67578125 5.23828125 10.921875 5.0625Q10.65234375 4.69921875 10.39453125 4.330078125Q10.13671875 3.9609375 9.83203125 3.66796875Q9.52734375 3.375 9.146484375 3.1875Q8.765625 3.0 8.25 3.0H3.75Q3.29296875 3.0 2.8828125 3.17578125Q2.47265625 3.3515625 2.162109375 3.662109375Q1.8515625 3.97265625 1.67578125 4.3828125Q1.5 4.79296875 1.5 5.25V6.0ZM10.5 17.25Q10.5 15.85546875 11.033203125 14.625Q11.56640625 13.39453125 12.48046875 12.48046875Q13.39453125 11.56640625 14.625 11.033203125Q15.85546875 10.5 17.25 10.5Q18.17578125 10.5 19.037109375 10.740234375Q19.8984375 10.98046875 20.6484375 11.419921875Q21.3984375 11.859375 22.01953125 12.48046875Q22.640625 13.1015625 23.080078125 13.8515625Q23.51953125 14.6015625 23.759765625 15.462890625Q24.0 16.32421875 24.0 17.25Q24.0 18.64453125 23.466796875 19.875Q22.93359375 21.10546875 22.01953125 22.01953125Q21.10546875 22.93359375 19.875 23.466796875Q18.64453125 24.0 17.25 24.0Q15.84375 24.0 14.61328125 23.47265625Q13.3828125 22.9453125 12.46875 22.03125Q11.5546875 21.1171875 11.02734375 19.88671875Q10.5 18.65625 10.5 17.25ZM18.0 18.0H20.25Q20.5546875 18.0 20.77734375 17.77734375Q21.0 17.5546875 21.0 17.25Q21.0 16.9453125 20.77734375 16.72265625Q20.5546875 16.5 20.25 16.5H18.0V14.25Q18.0 13.9453125 17.77734375 13.72265625Q17.5546875 13.5 17.25 13.5Q16.9453125 13.5 16.72265625 13.72265625Q16.5 13.9453125 16.5 14.25V16.5H14.25Q13.9453125 16.5 13.72265625 16.72265625Q13.5 16.9453125 13.5 17.25Q13.5 17.5546875 13.72265625 17.77734375Q13.9453125 18.0 14.25 18.0H16.5V20.25Q16.5 20.5546875 16.72265625 20.77734375Q16.9453125 21.0 17.25 21.0Q17.5546875 21.0 17.77734375 20.77734375Q18.0 20.5546875 18.0 20.25Z" fill="currentColor"/>
</svg>
